<?xml version="1.0" encoding="iso-8859-1"?>
<!-- Generator: Adobe Illustrator 19.0.0, SVG Export Plug-In . SVG Version: 6.00 Build 0)  -->
<svg version="1.1" id="Layer_1" xmlns="http://www.w3.org/2000/svg" xmlns:xlink="http://www.w3.org/1999/xlink" x="0px" y="0px"
	 viewBox="0 0 512 512" style="enable-background:new 0 0 512 512;" xml:space="preserve">
<rect x="100" y="488" style="fill:#554542;" width="32" height="20"/>
<path style="fill:#140500;" d="M132,512h-32c-2.4,0-4-1.6-4-4v-20c0-2.4,1.6-4,4-4h32c2.4,0,4,1.6,4,4v20
	C136,510.4,134.4,512,132,512z M104,504h24v-12h-24V504z"/>
<rect x="380" y="488" style="fill:#554542;" width="36" height="20"/>
<path style="fill:#140500;" d="M416,512h-36c-2.4,0-4-1.6-4-4v-20c0-2.4,1.6-4,4-4h36c2.4,0,4,1.6,4,4v20
	C420,510.4,418.4,512,416,512z M384,504h28v-12h-28V504z"/>
<path style="fill:#9F633C;" d="M444,488h-47.2H114.4H68V48.4C68,23.2,89.2,4,114.4,4h282.4C422,4,444,23.2,444,48.4L444,488L444,488
	z"/>
<g>
	<path style="fill:#140500;" d="M444,492H68c-2.4,0-4-1.6-4-4V48.4C64,21.6,86.8,0,114.4,0h282.4C425.2,0,448,21.6,448,48.4V488
		C448,490.4,446.4,492,444,492z M72,484h368V48.4c0-22-20-40.4-43.2-40.4H114.4C91.2,8,72,26,72,48.4V484z"/>
	<path style="fill:#140500;" d="M252,492c-2.4,0-4-1.6-4-4V32c0-2.4,1.6-4,4-4s4,1.6,4,4v456C256,490.4,254.4,492,252,492z"/>
	<path style="fill:#140500;" d="M220,288c-2.4,0-4-1.6-4-4v-48c0-2.4,1.6-4,4-4s4,1.6,4,4v48C224,286.4,222.4,288,220,288z"/>
	<path style="fill:#140500;" d="M280,288c-2.4,0-4-1.6-4-4v-48c0-2.4,1.6-4,4-4s4,1.6,4,4v48C284,286.4,282.4,288,280,288z"/>
</g>
<g>
</g>
<g>
</g>
<g>
</g>
<g>
</g>
<g>
</g>
<g>
</g>
<g>
</g>
<g>
</g>
<g>
</g>
<g>
</g>
<g>
</g>
<g>
</g>
<g>
</g>
<g>
</g>
<g>
</g>
</svg>
